<?xml version="1.0" encoding="UTF-8" standalone="no"?>
<!-- Created with Inkscape (http://www.inkscape.org/) -->

<svg
   xmlns:dc="http://purl.org/dc/elements/1.1/"
   xmlns:cc="http://creativecommons.org/ns#"
   xmlns:rdf="http://www.w3.org/1999/02/22-rdf-syntax-ns#"
   xmlns:svg="http://www.w3.org/2000/svg"
   xmlns="http://www.w3.org/2000/svg"
   xmlns:sodipodi="http://sodipodi.sourceforge.net/DTD/sodipodi-0.dtd"
   xmlns:inkscape="http://www.inkscape.org/namespaces/inkscape"
   width="210mm"
   height="297mm"
   viewBox="0 0 210 297"
   version="1.1"
   id="svg4052"
   inkscape:version="0.92.2 (5c3e80d, 2017-08-06)"
   sodipodi:docname="Player.svg">
  <defs
     id="defs4046" />
  <sodipodi:namedview
     id="base"
     pagecolor="#ffffff"
     bordercolor="#666666"
     borderopacity="1.0"
     inkscape:pageopacity="0.0"
     inkscape:pageshadow="2"
     inkscape:zoom="0.45313363"
     inkscape:cx="462.39992"
     inkscape:cy="292.96501"
     inkscape:document-units="mm"
     inkscape:current-layer="layer1"
     showgrid="false"
     inkscape:window-width="1920"
     inkscape:window-height="1001"
     inkscape:window-x="-9"
     inkscape:window-y="-9"
     inkscape:window-maximized="1" />
  <metadata
     id="metadata4049">
    <rdf:RDF>
      <cc:Work
         rdf:about="">
        <dc:format>image/svg+xml</dc:format>
        <dc:type
           rdf:resource="http://purl.org/dc/dcmitype/StillImage" />
        <dc:title />
      </cc:Work>
    </rdf:RDF>
  </metadata>
  <g
     inkscape:label="Ebene 1"
     inkscape:groupmode="layer"
     id="layer1">
    <path
       style="fill:#165016;stroke-width:0.32728708"
       d="m 56.645253,112.88764 5.331125,-1.12765 h 33.186261 l 5.237661,0.82011 11.32864,32.39438 -4.17143,-0.82011 -56.963085,-0.0717 -2.865481,0.84061 z"
       id="rect4054"
       inkscape:connector-curvature="0"
       sodipodi:nodetypes="ccccccccc" />
    <rect
       style="fill:#338000;stroke-width:0.31571251"
       id="rect4932"
       width="38.968555"
       height="32.085819"
       x="59.733425"
       y="111.75999"
       ry="2.0296717" />
    <rect
       style="fill:#a05a2c;stroke-width:0.29146203"
       id="rect4058"
       width="11.629542"
       height="6.9709587"
       x="62.383575"
       y="143.74432" />
    <rect
       style="fill:#a05a2c;stroke-width:0.29146203"
       id="rect4058-4"
       width="11.629542"
       height="6.9709587"
       x="84.169785"
       y="143.84581" />
    <rect
       style="fill:#ffb380;stroke-width:0.32728708"
       id="rect4092-4"
       width="9.2728891"
       height="4.4080973"
       x="84.952934"
       y="128.99757" />
    <path
       style="fill:#447821;stroke-width:0.28921494"
       d="m 92.821879,111.81826 3.8369,-0.0583 4.089981,0.82011 1.24178,4.81976 h -9.168661 z"
       id="rect4929"
       inkscape:connector-curvature="0"
       sodipodi:nodetypes="cccccc" />
    <rect
       style="fill:#ffb380;stroke-width:0.32728708"
       id="rect4092-4-3"
       width="9.2728901"
       height="4.4080973"
       x="64.761627"
       y="129.08165" />
    <path
       style="fill:#447821;stroke-width:0.28921494"
       d="m 64.572132,112.12579 -3.8369,-0.0583 -4.089979,0.82011 -1.241783,4.81975 h 9.168662 z"
       id="rect4929-7"
       inkscape:connector-curvature="0"
       sodipodi:nodetypes="cccccc" />
    <rect
       style="fill:#deaa87;stroke-width:0.32728708"
       id="rect4062"
       width="11.195365"
       height="2.870389"
       x="72.931259"
       y="120.24374" />
    <ellipse
       style="fill:#deaa87;stroke-width:0.30789748"
       id="path4081"
       cx="78.597244"
       cy="112.49672"
       rx="15.172944"
       ry="10.32876" />
    <ellipse
       style="fill:#ffffff;stroke-width:0.32728708"
       id="path4964"
       cx="72.566452"
       cy="111.06779"
       rx="2.0058362"
       ry="1.5428342" />
    <ellipse
       style="fill:#aaccff;stroke-width:0.16582645"
       id="path4964-6"
       cx="72.74971"
       cy="111.13122"
       rx="1.0162965"
       ry="0.78170741" />
    <ellipse
       style="fill:#ffffff;stroke-width:0.32728708"
       id="path4964-9"
       cx="83.997475"
       cy="111.02975"
       rx="2.0058362"
       ry="1.5428343" />
    <ellipse
       style="fill:#aaccff;stroke-width:0.16582645"
       id="path4964-6-1"
       cx="83.78492"
       cy="111.09315"
       rx="1.0162965"
       ry="0.78170741" />
    <path
       style="fill:#a05a2c;fill-opacity:0;stroke:#8d5228;stroke-width:0.32728708px;stroke-linecap:butt;stroke-linejoin:miter;stroke-opacity:0.98828125"
       d="m 78.503399,113.99119 1.68222,2.51171 h -2.737725"
       id="path4999"
       inkscape:connector-curvature="0" />
    <path
       style="fill:none;fill-opacity:1;stroke:#000000;stroke-width:0.32784227;stroke-opacity:1"
       d="m 84.031754,118.50406 c 0,0 -2.399899,1.44581 -5.360339,1.44581 -2.96044,0 -5.360341,-1.44581 -5.360341,-1.44581 0,0 2.216973,1.44581 5.177394,1.44581 2.96042,0 5.543286,-1.44581 5.543286,-1.44581 z"
       id="path5009"
       inkscape:connector-curvature="0"
       sodipodi:nodetypes="cscsc" />
    <path
       style="fill:#000000;fill-opacity:1;stroke:#000000;stroke-width:0.32728708px;stroke-linecap:butt;stroke-linejoin:miter;stroke-opacity:1"
       d="m 64.219396,106.06756 0.197907,4.87121 5.937239,-3.29821 4.683819,0.20296 3.694284,-1.62373 4.024129,1.67448 3.826222,-0.81187 4.74979,0.76112 -0.461787,-3.3997 -5.277543,-2.63857 -5.871272,-0.50742 -6.596932,-0.0507 c 0,0 -5.607392,1.62374 -5.87127,1.77597 -0.263875,0.15222 -3.034586,3.0445 -3.034586,3.0445 z"
       id="path5020"
       inkscape:connector-curvature="0" />
    <g
       id="g990"
       inkscape:export-filename="E:\MeinProgrammierdingsbums\SFML\ZeldaLike\ZeldaLike\dataRaw\chars\Player\front2.png"
       inkscape:export-xdpi="25.4"
       inkscape:export-ydpi="25.4">
      <path
         sodipodi:nodetypes="ccccccccc"
         inkscape:connector-curvature="0"
         id="rect4054-6"
         d="m 142.37696,112.61748 5.33112,-1.12765 h 33.18627 l 5.23766,0.82011 11.32864,32.39438 -4.17143,-0.82011 -56.96309,-0.0717 -2.86548,0.84061 z"
         style="fill:#165016;stroke-width:0.32728708" />
      <rect
         y="141.51302"
         x="148.42494"
         height="6.9709587"
         width="11.629543"
         id="rect4058-5"
         style="fill:#a05a2c;stroke-width:0.29146203" />
      <rect
         y="143.47246"
         x="169.28218"
         height="6.9709587"
         width="11.629543"
         id="rect4058-4-6"
         style="fill:#a05a2c;stroke-width:0.29146203" />
      <rect
         ry="2.0296717"
         y="111.48983"
         x="145.46513"
         height="32.085819"
         width="38.968555"
         id="rect4932-0"
         style="fill:#338000;stroke-width:0.31571251" />
      <rect
         y="108.61945"
         x="157.83722"
         height="2.8703892"
         width="11.195365"
         id="rect4062-5"
         style="fill:#deaa87;stroke-width:0.32728708" />
      <ellipse
         ry="11.670612"
         rx="15.172944"
         cy="99.530579"
         cx="163.5032"
         id="path4081-4"
         style="fill:#deaa87;stroke-width:0.32728708" />
      <rect
         y="127.17912"
         x="169.85889"
         height="4.4080973"
         width="9.2728901"
         id="rect4092-4-39"
         style="fill:#ffb380;stroke-width:0.32728708" />
      <path
         sodipodi:nodetypes="cccccc"
         inkscape:connector-curvature="0"
         id="rect4929-4"
         d="m 178.55359,111.5481 3.8369,-0.0583 4.08998,0.82011 1.24178,4.81976 h -9.16866 z"
         style="fill:#447821;stroke-width:0.28921497" />
      <rect
         y="125.09559"
         x="150.49333"
         height="4.4080973"
         width="9.272891"
         id="rect4092-4-3-5"
         style="fill:#ffb380;stroke-width:0.32728708" />
      <path
         sodipodi:nodetypes="cccccc"
         inkscape:connector-curvature="0"
         id="rect4929-7-2"
         d="m 150.30384,111.85563 -3.8369,-0.0583 -4.08998,0.82011 -1.24178,4.81975 h 9.16866 z"
         style="fill:#447821;stroke-width:0.28921497" />
      <ellipse
         ry="1.5428342"
         rx="2.0058362"
         cy="95.830833"
         cx="157.52402"
         id="path4964-1"
         style="fill:#ffffff;stroke-width:0.32728708" />
      <ellipse
         ry="0.78170741"
         rx="1.0162965"
         cy="95.894249"
         cx="157.70728"
         id="path4964-6-4"
         style="fill:#aaccff;stroke-width:0.16582645" />
      <ellipse
         ry="1.5428343"
         rx="2.0058362"
         cy="95.792778"
         cx="168.95505"
         id="path4964-9-8"
         style="fill:#ffffff;stroke-width:0.32728708" />
      <ellipse
         ry="0.78170741"
         rx="1.0162965"
         cy="95.856178"
         cx="168.74249"
         id="path4964-6-1-8"
         style="fill:#aaccff;stroke-width:0.16582645" />
      <path
         inkscape:connector-curvature="0"
         id="path4999-5"
         d="m 163.51257,99.167105 1.68222,2.511715 h -2.73772"
         style="fill:#a05a2c;fill-opacity:0;stroke:#8d5228;stroke-width:0.32728708px;stroke-linecap:butt;stroke-linejoin:miter;stroke-opacity:0.98828125" />
      <path
         sodipodi:nodetypes="cscsc"
         inkscape:connector-curvature="0"
         id="path5009-5"
         d="m 168.73127,104.71216 c 0,0 -2.3999,1.44581 -5.36034,1.44581 -2.96044,0 -5.36034,-1.44581 -5.36034,-1.44581 0,0 2.21697,1.44581 5.17739,1.44581 2.96042,0 5.54329,-1.44581 5.54329,-1.44581 z"
         style="fill:none;fill-opacity:1;stroke:#000000;stroke-width:0.32784227;stroke-opacity:1" />
      <path
         inkscape:connector-curvature="0"
         id="path5020-6"
         d="m 148.99932,91.505096 0.19791,4.87121 5.93724,-3.298213 4.68382,0.202965 3.69428,-1.623736 4.02413,1.674479 3.82622,-0.81187 4.74979,0.761127 -0.46178,-3.399701 -5.27755,-2.63857 -5.87127,-0.50742 -6.59693,-0.05074 c 0,0 -5.60739,1.623739 -5.87127,1.775965 -0.26388,0.152225 -3.03459,3.044506 -3.03459,3.044506 z"
         style="fill:#000000;fill-opacity:1;stroke:#000000;stroke-width:0.32728708px;stroke-linecap:butt;stroke-linejoin:miter;stroke-opacity:1" />
    </g>
    <path
       style="fill:#165016;stroke-width:0.32728708"
       d="m 219.06895,112.7723 5.33112,-1.12765 h 33.18627 l 5.23766,0.82011 11.32864,32.39438 -4.17143,-0.82011 -56.96309,-0.0717 -2.86548,0.84061 z"
       id="rect4054-6-2"
       inkscape:connector-curvature="0"
       sodipodi:nodetypes="ccccccccc"
       inkscape:export-filename="E:\MeinProgrammierdingsbums\SFML\ZeldaLike\ZeldaLike\dataRaw\chars\Player\front3.png"
       inkscape:export-xdpi="25.4"
       inkscape:export-ydpi="25.4" />
    <g
       id="g1008"
       inkscape:export-filename="E:\MeinProgrammierdingsbums\SFML\ZeldaLike\ZeldaLike\dataRaw\chars\Player\front3.png"
       inkscape:export-xdpi="25.4"
       inkscape:export-ydpi="25.4">
      <rect
         y="143.93866"
         x="224.91049"
         height="6.9709587"
         width="11.629544"
         id="rect4058-5-1"
         style="fill:#a05a2c;stroke-width:0.29146203" />
      <rect
         y="141.15001"
         x="245.97417"
         height="6.9709587"
         width="11.629544"
         id="rect4058-4-6-3"
         style="fill:#a05a2c;stroke-width:0.29146203" />
      <rect
         ry="2.0296717"
         y="111.64465"
         x="222.15712"
         height="32.085819"
         width="38.968555"
         id="rect4932-0-1"
         style="fill:#338000;stroke-width:0.31571251" />
      <rect
         y="108.77427"
         x="234.52922"
         height="2.8703892"
         width="11.195365"
         id="rect4062-5-3"
         style="fill:#deaa87;stroke-width:0.32728708" />
      <ellipse
         ry="11.670612"
         rx="15.172944"
         cy="99.685387"
         cx="240.19521"
         id="path4081-4-0"
         style="fill:#deaa87;stroke-width:0.32728708" />
      <rect
         y="127.02428"
         x="247.27342"
         height="4.4080973"
         width="9.272891"
         id="rect4092-4-39-4"
         style="fill:#ffb380;stroke-width:0.32728708" />
      <path
         sodipodi:nodetypes="cccccc"
         inkscape:connector-curvature="0"
         id="rect4929-4-3"
         d="m 255.24558,111.70292 3.8369,-0.0583 4.08998,0.82011 1.24178,4.81976 h -9.16866 z"
         style="fill:#447821;stroke-width:0.28921497" />
      <rect
         y="129.37917"
         x="227.18532"
         height="4.4080973"
         width="9.272891"
         id="rect4092-4-3-5-1"
         style="fill:#ffb380;stroke-width:0.32728708" />
      <path
         sodipodi:nodetypes="cccccc"
         inkscape:connector-curvature="0"
         id="rect4929-7-2-4"
         d="m 226.99583,112.01045 -3.8369,-0.0583 -4.08998,0.82011 -1.24178,4.81975 h 9.16866 z"
         style="fill:#447821;stroke-width:0.28921497" />
      <ellipse
         ry="1.5428342"
         rx="2.0058362"
         cy="95.985649"
         cx="234.216"
         id="path4964-1-2"
         style="fill:#ffffff;stroke-width:0.32728708" />
      <ellipse
         ry="0.78170741"
         rx="1.0162965"
         cy="96.049057"
         cx="234.39928"
         id="path4964-6-4-5"
         style="fill:#aaccff;stroke-width:0.16582645" />
      <ellipse
         ry="1.5428343"
         rx="2.0058362"
         cy="95.947594"
         cx="245.64703"
         id="path4964-9-8-0"
         style="fill:#ffffff;stroke-width:0.32728708" />
      <ellipse
         ry="0.78170741"
         rx="1.0162965"
         cy="96.010994"
         cx="245.43448"
         id="path4964-6-1-8-0"
         style="fill:#aaccff;stroke-width:0.16582645" />
      <path
         inkscape:connector-curvature="0"
         id="path4999-5-7"
         d="m 240.20456,99.32192 1.68222,2.51172 h -2.73772"
         style="fill:#a05a2c;fill-opacity:0;stroke:#8d5228;stroke-width:0.32728708px;stroke-linecap:butt;stroke-linejoin:miter;stroke-opacity:0.98828125" />
      <path
         sodipodi:nodetypes="cscsc"
         inkscape:connector-curvature="0"
         id="path5009-5-2"
         d="m 245.42326,104.86698 c 0,0 -2.3999,1.44581 -5.36034,1.44581 -2.96044,0 -5.36034,-1.44581 -5.36034,-1.44581 0,0 2.21697,1.44581 5.17739,1.44581 2.96042,0 5.54329,-1.44581 5.54329,-1.44581 z"
         style="fill:none;fill-opacity:1;stroke:#000000;stroke-width:0.32784227;stroke-opacity:1" />
      <path
         inkscape:connector-curvature="0"
         id="path5020-6-9"
         d="m 225.69131,91.65991 0.19791,4.87121 5.93724,-3.29821 4.68382,0.20296 3.69428,-1.62373 4.02413,1.67448 3.82622,-0.81187 4.74979,0.76112 -0.46178,-3.399696 -5.27755,-2.638571 -5.87127,-0.50742 -6.59693,-0.05074 c 0,0 -5.60739,1.623739 -5.87127,1.775965 -0.26388,0.152225 -3.03459,3.044502 -3.03459,3.044502 z"
         style="fill:#000000;fill-opacity:1;stroke:#000000;stroke-width:0.32728708px;stroke-linecap:butt;stroke-linejoin:miter;stroke-opacity:1" />
    </g>
    <g
       id="g1145"
       transform="matrix(1,0,0,1.0174905,-12.799202,-2.7864357)"
       inkscape:export-filename="E:\MeinProgrammierdingsbums\SFML\ZeldaLike\ZeldaLike\dataRaw\chars\Player\back1.png"
       inkscape:export-xdpi="25.4"
       inkscape:export-ydpi="25.4">
      <path
         sodipodi:nodetypes="ccccccccc"
         inkscape:connector-curvature="0"
         id="rect4054-0"
         d="m 53.092206,192.19962 5.331125,-1.12765 h 33.186262 l 5.23766,0.82011 11.328637,32.39438 -4.17142,-0.82011 -56.963092,-0.0717 -2.865481,0.84061 z"
         style="fill:#165016;stroke-width:0.32728708" />
      <rect
         y="223.0563"
         x="58.830528"
         height="6.9709587"
         width="11.629543"
         id="rect4058-6"
         style="fill:#a05a2c;stroke-width:0.29146203" />
      <rect
         y="188.2016"
         x="68.55246"
         height="2.8703892"
         width="11.195365"
         id="rect4062-3"
         style="fill:#deaa87;stroke-width:0.32728708" />
      <rect
         y="223.15779"
         x="80.616737"
         height="6.9709587"
         width="11.629543"
         id="rect4058-4-4"
         style="fill:#a05a2c;stroke-width:0.29146203" />
      <ellipse
         ry="11.670612"
         rx="15.172944"
         cy="179.11272"
         cx="74.218445"
         id="path4081-9"
         style="fill:#deaa87;stroke-width:0.32728708" />
      <path
         sodipodi:nodetypes="cccccc"
         inkscape:connector-curvature="0"
         id="rect4929-3"
         d="m 89.268832,191.13024 3.8369,-0.0583 4.089982,0.82011 1.24178,4.81976 h -9.168662 z"
         style="fill:#447821;stroke-width:0.28921497" />
      <path
         sodipodi:nodetypes="cccccc"
         inkscape:connector-curvature="0"
         id="rect4929-7-6"
         d="m 61.019085,191.43777 -3.8369,-0.0583 -4.089979,0.82011 -1.241783,4.81975 h 9.168662 z"
         style="fill:#447821;stroke-width:0.28921497" />
      <path
         inkscape:connector-curvature="0"
         id="path1079"
         d="m 57.951771,180.0953 5.890639,3.56539 h 9.766064 l 2.945321,1.08512 5.425592,-3.41037 8.060878,-1.08512 -2.480271,-7.90586 -6.510708,-4.49549 -11.161215,-0.62007 -7.285793,3.10034 -3.565391,4.80553 z"
         style="fill:#000000;fill-opacity:1;stroke:none;stroke-width:0.28097343;stroke-opacity:1" />
    </g>
    <rect
       style="fill:#a05a2c;stroke-width:0.29399991"
       id="rect4058-6-4"
       width="11.629544"
       height="7.092885"
       x="143.6642"
       y="219.32545"
       inkscape:export-filename="E:\MeinProgrammierdingsbums\SFML\ZeldaLike\ZeldaLike\dataRaw\chars\Player\back2.png"
       inkscape:export-xdpi="25.4"
       inkscape:export-ydpi="25.4" />
    <path
       style="fill:#165016;stroke-width:0.3301369"
       d="m 137.92589,190.157 5.33112,-1.14738 h 33.18627 l 5.23766,0.83446 11.32863,32.96097 -4.17142,-0.83445 -56.96309,-0.0729 -2.86548,0.85531 z"
       id="rect4054-0-5"
       inkscape:connector-curvature="0"
       sodipodi:nodetypes="ccccccccc"
       inkscape:export-filename="E:\MeinProgrammierdingsbums\SFML\ZeldaLike\ZeldaLike\dataRaw\chars\Player\back2.png"
       inkscape:export-xdpi="25.4"
       inkscape:export-ydpi="25.4" />
    <rect
       style="fill:#deaa87;stroke-width:0.3301369"
       id="rect4062-3-1"
       width="11.195365"
       height="2.920594"
       x="153.38614"
       y="186.08904"
       inkscape:export-filename="E:\MeinProgrammierdingsbums\SFML\ZeldaLike\ZeldaLike\dataRaw\chars\Player\back2.png"
       inkscape:export-xdpi="25.4"
       inkscape:export-ydpi="25.4" />
    <rect
       style="fill:#a05a2c;stroke-width:0.29399991"
       id="rect4058-4-4-2"
       width="11.629544"
       height="7.092885"
       x="165.45041"
       y="221.65663"
       inkscape:export-filename="E:\MeinProgrammierdingsbums\SFML\ZeldaLike\ZeldaLike\dataRaw\chars\Player\back2.png"
       inkscape:export-xdpi="25.4"
       inkscape:export-ydpi="25.4" />
    <ellipse
       style="fill:#deaa87;stroke-width:0.3301369"
       id="path4081-9-2"
       cx="159.05212"
       cy="176.84119"
       rx="15.172944"
       ry="11.874739"
       inkscape:export-filename="E:\MeinProgrammierdingsbums\SFML\ZeldaLike\ZeldaLike\dataRaw\chars\Player\back2.png"
       inkscape:export-xdpi="25.4"
       inkscape:export-ydpi="25.4" />
    <path
       style="fill:#447821;stroke-width:0.29173326"
       d="m 174.10251,189.06891 3.8369,-0.0593 4.08999,0.83446 1.24178,4.90406 h -9.16867 z"
       id="rect4929-3-8"
       inkscape:connector-curvature="0"
       sodipodi:nodetypes="cccccc"
       inkscape:export-filename="E:\MeinProgrammierdingsbums\SFML\ZeldaLike\ZeldaLike\dataRaw\chars\Player\back2.png"
       inkscape:export-xdpi="25.4"
       inkscape:export-ydpi="25.4" />
    <path
       style="fill:#447821;stroke-width:0.29173326"
       d="m 145.85277,189.38182 -3.8369,-0.0593 -4.08998,0.83446 -1.24178,4.90405 h 9.16866 z"
       id="rect4929-7-6-1"
       inkscape:connector-curvature="0"
       sodipodi:nodetypes="cccccc"
       inkscape:export-filename="E:\MeinProgrammierdingsbums\SFML\ZeldaLike\ZeldaLike\dataRaw\chars\Player\back2.png"
       inkscape:export-xdpi="25.4"
       inkscape:export-ydpi="25.4" />
    <path
       style="fill:#000000;fill-opacity:1;stroke:none;stroke-width:0.28342;stroke-opacity:1"
       d="m 142.78545,177.84096 5.89064,3.62776 h 9.76607 l 2.94532,1.10409 5.42559,-3.47001 8.06088,-1.1041 -2.48027,-8.04414 -6.51071,-4.57412 -11.16122,-0.63092 -7.28579,3.15457 -3.56539,4.88958 z"
       id="path1079-6"
       inkscape:connector-curvature="0"
       inkscape:export-filename="E:\MeinProgrammierdingsbums\SFML\ZeldaLike\ZeldaLike\dataRaw\chars\Player\back2.png"
       inkscape:export-xdpi="25.4"
       inkscape:export-ydpi="25.4" />
    <rect
       style="fill:#a05a2c;stroke-width:0.29423738"
       id="rect4058-4-4-8"
       width="11.629544"
       height="7.1043477"
       x="247.196"
       y="217.52074"
       inkscape:export-filename="E:\MeinProgrammierdingsbums\SFML\ZeldaLike\ZeldaLike\dataRaw\chars\Player\back3.png"
       inkscape:export-xdpi="25.4"
       inkscape:export-ydpi="25.4" />
    <path
       style="fill:#165016;stroke-width:0.33040354"
       d="m 219.96341,188.05293 5.33112,-1.14923 h 33.18627 l 5.23766,0.83581 11.32863,33.01424 -4.17142,-0.83581 -56.96309,-0.0731 -2.86548,0.85669 z"
       id="rect4054-0-4"
       inkscape:connector-curvature="0"
       sodipodi:nodetypes="ccccccccc"
       inkscape:export-filename="E:\MeinProgrammierdingsbums\SFML\ZeldaLike\ZeldaLike\dataRaw\chars\Player\back3.png"
       inkscape:export-xdpi="25.4"
       inkscape:export-ydpi="25.4" />
    <rect
       style="fill:#a05a2c;stroke-width:0.29423738"
       id="rect4058-6-8"
       width="11.629544"
       height="7.1043477"
       x="225.70174"
       y="219.50005"
       inkscape:export-filename="E:\MeinProgrammierdingsbums\SFML\ZeldaLike\ZeldaLike\dataRaw\chars\Player\back3.png"
       inkscape:export-xdpi="25.4"
       inkscape:export-ydpi="25.4" />
    <rect
       style="fill:#deaa87;stroke-width:0.33040354"
       id="rect4062-3-6"
       width="11.195365"
       height="2.9253139"
       x="235.42366"
       y="183.97839"
       inkscape:export-filename="E:\MeinProgrammierdingsbums\SFML\ZeldaLike\ZeldaLike\dataRaw\chars\Player\back3.png"
       inkscape:export-xdpi="25.4"
       inkscape:export-ydpi="25.4" />
    <ellipse
       style="fill:#deaa87;stroke-width:0.33040354"
       id="path4081-9-6"
       cx="241.08965"
       cy="174.71561"
       rx="15.172944"
       ry="11.893929"
       inkscape:export-filename="E:\MeinProgrammierdingsbums\SFML\ZeldaLike\ZeldaLike\dataRaw\chars\Player\back3.png"
       inkscape:export-xdpi="25.4"
       inkscape:export-ydpi="25.4" />
    <path
       style="fill:#447821;stroke-width:0.29196891"
       d="m 256.14004,186.96309 3.8369,-0.0594 4.08998,0.8358 1.24178,4.91199 h -9.16866 z"
       id="rect4929-3-1"
       inkscape:connector-curvature="0"
       sodipodi:nodetypes="cccccc"
       inkscape:export-filename="E:\MeinProgrammierdingsbums\SFML\ZeldaLike\ZeldaLike\dataRaw\chars\Player\back3.png"
       inkscape:export-xdpi="25.4"
       inkscape:export-ydpi="25.4" />
    <path
       style="fill:#447821;stroke-width:0.29196891"
       d="m 227.89029,187.2765 -3.8369,-0.0594 -4.08998,0.8358 -1.24178,4.91198 h 9.16866 z"
       id="rect4929-7-6-0"
       inkscape:connector-curvature="0"
       sodipodi:nodetypes="cccccc"
       inkscape:export-filename="E:\MeinProgrammierdingsbums\SFML\ZeldaLike\ZeldaLike\dataRaw\chars\Player\back3.png"
       inkscape:export-xdpi="25.4"
       inkscape:export-ydpi="25.4" />
    <path
       style="fill:#000000;fill-opacity:1;stroke:none;stroke-width:0.28364891;stroke-opacity:1"
       d="m 224.82297,175.71699 5.89064,3.63362 h 9.76607 l 2.94532,1.10588 5.42559,-3.47563 8.06088,-1.10588 -2.48027,-8.05714 -6.51071,-4.58151 -11.16122,-0.63193 -7.28579,3.15966 -3.56539,4.89749 z"
       id="path1079-4"
       inkscape:connector-curvature="0"
       inkscape:export-filename="E:\MeinProgrammierdingsbums\SFML\ZeldaLike\ZeldaLike\dataRaw\chars\Player\back3.png"
       inkscape:export-xdpi="25.4"
       inkscape:export-ydpi="25.4" />
    <rect
       style="fill:#217821;fill-rule:evenodd;stroke-width:0.43580642"
       id="rect1194"
       width="22.723614"
       height="44.717331"
       x="-140.304"
       y="243.92241"
       ry="2.1243389" />
    <path
       style="fill:#165016;stroke-width:0.43837902"
       d="m -142.27438,245.63397 3.93606,-1.65652 21.33522,0.26632 v 0 l -20.71605,44.32086 -6.90763,0.21079 -5.03738,0.18098 -3.49958,1.23487 z"
       id="rect4054-0-3"
       inkscape:connector-curvature="0"
       sodipodi:nodetypes="ccccccccc" />
    <rect
       style="fill:#a05a2c;stroke-width:0.22140881"
       id="rect4058-6-6"
       width="10.13502"
       height="4.6159005"
       x="-132.8584"
       y="288.68182"
       ry="0.67499018" />
    <rect
       style="fill:#deaa87;fill-opacity:1;fill-rule:evenodd;stroke-width:0.42624861"
       id="rect1196"
       width="4.7849603"
       height="0.93186522"
       x="-125.06867"
       y="243.13071"
       ry="0" />
    <ellipse
       style="fill:#deaa87;fill-opacity:1;stroke:none;stroke-width:0.42624861;stroke-opacity:1"
       id="path1198"
       cx="-122.54477"
       cy="236.62624"
       rx="9.3810301"
       ry="7.0052261" />
    <rect
       style="fill:#deaa87;fill-opacity:1;stroke:none;stroke-width:0.42624861;stroke-opacity:1"
       id="rect1200"
       width="7.3169727"
       height="3.376878"
       x="-121.34209"
       y="259.54996"
       ry="0" />
    <ellipse
       style="fill:#ffffff;fill-opacity:1;stroke:none;stroke-width:0.42624861;stroke-opacity:1"
       id="path1206"
       cx="-117.734"
       cy="235.11743"
       rx="1.5394511"
       ry="1.1495755" />
    <path
       style="fill:#000000;fill-opacity:1;stroke:none;stroke-width:0.42624861;stroke-opacity:1"
       d="m -132.21445,236.8418 c 1.05836,-0.17963 9.2367,-4.99348 9.2367,-4.99348 l 3.36755,0.61071 c 0,0 1.44324,-0.53886 1.68377,-0.53886 0.24055,0 2.50161,0.46701 2.50161,0.46701 l 0.38486,-0.50293 -4.9551,-2.55063 -4.61835,-0.0359 -5.53241,2.19138 -1.97242,3.23319 z"
       id="path1208"
       inkscape:connector-curvature="0" />
    <ellipse
       style="fill:#00aad4;fill-opacity:1;stroke:none;stroke-width:0.42624861;stroke-opacity:1"
       id="path1210"
       cx="-117.22957"
       cy="235.1069"
       rx="0.57729417"
       ry="0.43109083" />
    <path
       style="fill:#1a1a1a;fill-opacity:1;stroke:none;stroke-width:0.42624861;stroke-opacity:1"
       d="m -114.09473,239.64859 v 0.0253 c 0,0.54715 -1.32668,-0.49534 -1.32668,-0.49534 l 1.25865,0.54616 z"
       id="path1214"
       inkscape:connector-curvature="0"
       sodipodi:nodetypes="cscsc" />
    <g
       id="g1458"
       transform="matrix(1.864296,0,0,1.3927933,-128.67645,-111.46335)"
       inkscape:export-filename="E:\MeinProgrammierdingsbums\SFML\ZeldaLike\ZeldaLike\dataRaw\chars\Player\right2.png"
       inkscape:export-xdpi="25.4"
       inkscape:export-ydpi="25.4">
      <rect
         ry="0.67372411"
         y="288.27585"
         x="26.751347"
         height="3.3786147"
         width="5.5396004"
         id="rect4058-6-6-0-3"
         style="fill:#784421;stroke-width:0.1400435" />
      <rect
         ry="0.82352585"
         y="286.87006"
         x="31.588688"
         height="3.4415684"
         width="5.6428199"
         id="rect4058-6-6-0"
         style="fill:#a05a2c;stroke-width:0.14265293" />
      <rect
         ry="1.5259401"
         y="256.20877"
         x="25.36484"
         height="32.121037"
         width="12.188848"
         id="rect1194-6"
         style="fill:#217821;fill-rule:evenodd;stroke-width:0.2705161" />
      <path
         sodipodi:nodetypes="ccccccccc"
         inkscape:connector-curvature="0"
         id="rect4054-0-3-6"
         d="m 24.307946,257.43819 2.111283,-1.1899 11.444116,0.1913 v 0 l -11.111999,31.83625 -3.705223,0.15141 -2.70203,0.13 -1.877157,0.88702 z"
         style="fill:#165016;stroke-width:0.27211297" />
      <rect
         ry="0"
         y="255.64006"
         x="33.53701"
         height="0.66937083"
         width="2.5666323"
         id="rect1196-0"
         style="fill:#deaa87;fill-opacity:1;fill-rule:evenodd;stroke-width:0.26458332" />
      <circle
         r="5.0319443"
         cy="250.96782"
         cx="34.890812"
         id="path1198-2"
         style="fill:#deaa87;fill-opacity:1;stroke:none;stroke-width:0.26458332;stroke-opacity:1" />
      <rect
         ry="0"
         y="266.26645"
         x="35.462948"
         height="2.4256551"
         width="3.9247925"
         id="rect1200-8"
         style="fill:#deaa87;fill-opacity:1;stroke:none;stroke-width:0.26458332;stroke-opacity:1" />
      <circle
         r="0.82575494"
         cy="249.88402"
         cx="37.471298"
         id="path1206-1"
         style="fill:#ffffff;fill-opacity:1;stroke:none;stroke-width:0.26458332;stroke-opacity:1" />
      <path
         inkscape:connector-curvature="0"
         id="path1208-7"
         d="m 29.704041,251.12266 c 0.567707,-0.12903 4.95453,-3.58688 4.95453,-3.58688 l 1.806339,0.43868 c 0,0 0.774145,-0.38707 0.903169,-0.38707 0.129025,0 1.341852,0.33546 1.341852,0.33546 l 0.206439,-0.36126 -2.657899,-1.83215 -2.477265,-0.0258 -2.967557,1.5741 -1.057998,2.32244 z"
         style="fill:#000000;fill-opacity:1;stroke:none;stroke-width:0.26458332;stroke-opacity:1" />
      <circle
         r="0.30965811"
         cy="249.87646"
         cx="37.741867"
         id="path1210-4"
         style="fill:#00aad4;fill-opacity:1;stroke:none;stroke-width:0.26458332;stroke-opacity:1" />
      <path
         sodipodi:nodetypes="cscsc"
         inkscape:connector-curvature="0"
         id="path1214-3"
         d="m 39.423386,253.13881 v 0.0182 c 0,0.39302 -0.711625,-0.35581 -0.711625,-0.35581 l 0.675131,0.39231 z"
         style="fill:#1a1a1a;fill-opacity:1;stroke:none;stroke-width:0.26458332;stroke-opacity:1" />
    </g>
    <g
       id="g1471"
       transform="matrix(1.864296,0,0,1.3880394,-130.05771,-107.14606)"
       inkscape:export-filename="E:\MeinProgrammierdingsbums\SFML\ZeldaLike\ZeldaLike\dataRaw\chars\Player\right3.png"
       inkscape:export-xdpi="25.4"
       inkscape:export-ydpi="25.4">
      <rect
         ry="1.0679064"
         y="286.69318"
         x="61.668236"
         height="3.3471377"
         width="5.4879909"
         id="rect4058-6-6-0-3-6"
         style="fill:#784421;stroke-width:0.13873878" />
      <rect
         ry="0.6110881"
         y="288.24493"
         x="56.53009"
         height="3.5359988"
         width="5.7976489"
         id="rect4058-6-6-0-2"
         style="fill:#a05a2c;stroke-width:0.14656708" />
      <rect
         ry="1.5259401"
         y="256.17786"
         x="55.143585"
         height="32.121037"
         width="12.188848"
         id="rect1194-6-3"
         style="fill:#217821;fill-rule:evenodd;stroke-width:0.2705161" />
      <path
         sodipodi:nodetypes="ccccccccc"
         inkscape:connector-curvature="0"
         id="rect4054-0-3-6-7"
         d="m 54.08669,257.40728 2.111283,-1.1899 11.444116,0.1913 v 0 l -11.111999,31.83625 -3.705223,0.15141 -2.70203,0.13 -1.877157,0.88702 z"
         style="fill:#165016;stroke-width:0.27211297" />
      <rect
         ry="0"
         y="255.60916"
         x="63.315754"
         height="0.66937083"
         width="2.5666323"
         id="rect1196-0-8"
         style="fill:#deaa87;fill-opacity:1;fill-rule:evenodd;stroke-width:0.26458332" />
      <circle
         r="5.0319443"
         cy="250.93692"
         cx="64.669556"
         id="path1198-2-0"
         style="fill:#deaa87;fill-opacity:1;stroke:none;stroke-width:0.26458332;stroke-opacity:1" />
      <rect
         ry="0"
         y="269.28116"
         x="65.241692"
         height="2.4256551"
         width="3.9247925"
         id="rect1200-8-9"
         style="fill:#deaa87;fill-opacity:1;stroke:none;stroke-width:0.26458332;stroke-opacity:1" />
      <circle
         r="0.82575494"
         cy="249.8531"
         cx="67.250046"
         id="path1206-1-8"
         style="fill:#ffffff;fill-opacity:1;stroke:none;stroke-width:0.26458332;stroke-opacity:1" />
      <path
         inkscape:connector-curvature="0"
         id="path1208-7-5"
         d="m 59.482785,251.09175 c 0.567707,-0.12903 4.95453,-3.58688 4.95453,-3.58688 l 1.806339,0.43868 c 0,0 0.774145,-0.38707 0.903169,-0.38707 0.129025,0 1.341852,0.33546 1.341852,0.33546 l 0.206439,-0.36126 -2.657899,-1.83215 -2.477265,-0.0258 -2.967557,1.5741 -1.057998,2.32244 z"
         style="fill:#000000;fill-opacity:1;stroke:none;stroke-width:0.26458332;stroke-opacity:1" />
      <circle
         r="0.30965811"
         cy="249.84555"
         cx="67.520615"
         id="path1210-4-6"
         style="fill:#00aad4;fill-opacity:1;stroke:none;stroke-width:0.26458332;stroke-opacity:1" />
      <path
         sodipodi:nodetypes="cscsc"
         inkscape:connector-curvature="0"
         id="path1214-3-1"
         d="m 69.20213,253.1079 v 0.0182 c 0,0.39302 -0.711625,-0.35581 -0.711625,-0.35581 l 0.675131,0.39231 z"
         style="fill:#1a1a1a;fill-opacity:1;stroke:none;stroke-width:0.26458332;stroke-opacity:1" />
    </g>
    <g
       id="g1509"
       transform="matrix(1.8642959,0,0,1.3921507,-109.46999,-107.86465)"
       inkscape:export-filename="E:\MeinProgrammierdingsbums\SFML\ZeldaLike\ZeldaLike\dataRaw\chars\Player\left3.png"
       inkscape:export-xdpi="25.4"
       inkscape:export-ydpi="25.4">
      <rect
         transform="scale(-1,1)"
         ry="1.5259401"
         y="305.92209"
         x="-63.350185"
         height="32.121037"
         width="12.188848"
         id="rect1194-1"
         style="fill:#217821;fill-rule:evenodd;stroke-width:0.2705161" />
      <path
         sodipodi:nodetypes="ccccccccc"
         inkscape:connector-curvature="0"
         id="rect4054-0-3-3"
         d="m 64.407078,307.15151 -2.111283,-1.1899 -11.444116,0.1913 v 0 l 11.111999,31.83626 3.705223,0.15141 2.70203,0.12999 1.877157,0.88702 z"
         style="fill:#165016;stroke-width:0.27211297" />
      <rect
         transform="scale(-1,1)"
         ry="0.48485416"
         y="338.07333"
         x="-59.35638"
         height="3.3156612"
         width="5.4363813"
         id="rect4058-6-6-9"
         style="fill:#a05a2c;stroke-width:0.13743407" />
      <rect
         transform="scale(-1,1)"
         ry="0"
         y="305.35339"
         x="-55.178017"
         height="0.66937083"
         width="2.5666323"
         id="rect1196-4"
         style="fill:#deaa87;fill-opacity:1;fill-rule:evenodd;stroke-width:0.26458332" />
      <circle
         transform="scale(-1,1)"
         r="5.0319443"
         cy="300.68115"
         cx="-53.824211"
         id="path1198-5"
         style="fill:#deaa87;fill-opacity:1;stroke:none;stroke-width:0.26458332;stroke-opacity:1" />
      <rect
         transform="scale(-1,1)"
         ry="0"
         y="317.14755"
         x="-53.179089"
         height="2.4256551"
         width="3.9247925"
         id="rect1200-6"
         style="fill:#deaa87;fill-opacity:1;stroke:none;stroke-width:0.26458332;stroke-opacity:1" />
      <circle
         transform="scale(-1,1)"
         r="0.82575494"
         cy="299.59735"
         cx="-51.243725"
         id="path1206-6"
         style="fill:#ffffff;fill-opacity:1;stroke:none;stroke-width:0.26458332;stroke-opacity:1" />
      <path
         inkscape:connector-curvature="0"
         id="path1208-5"
         d="m 59.010983,300.83598 c -0.567707,-0.12903 -4.95453,-3.58688 -4.95453,-3.58688 l -1.806339,0.43868 c 0,0 -0.774145,-0.38707 -0.903169,-0.38707 -0.129025,0 -1.341852,0.33546 -1.341852,0.33546 l -0.206439,-0.36126 2.657899,-1.83215 2.477265,-0.0258 2.967557,1.5741 1.057998,2.32244 z"
         style="fill:#000000;fill-opacity:1;stroke:none;stroke-width:0.26458332;stroke-opacity:1" />
      <circle
         transform="scale(-1,1)"
         r="0.30965811"
         cy="299.58978"
         cx="-50.973156"
         id="path1210-6"
         style="fill:#00aad4;fill-opacity:1;stroke:none;stroke-width:0.26458332;stroke-opacity:1" />
      <path
         sodipodi:nodetypes="cscsc"
         inkscape:connector-curvature="0"
         id="path1214-7"
         d="m 49.291639,302.85213 v 0.0182 c 0,0.39302 0.711623,-0.35581 0.711623,-0.35581 l -0.67513,0.39231 z"
         style="fill:#1a1a1a;fill-opacity:1;stroke:none;stroke-width:0.26458332;stroke-opacity:1" />
    </g>
    <g
       id="g1497"
       transform="matrix(1.8642961,0,0,1.3927931,-117.25549,-103.13268)"
       inkscape:export-filename="E:\MeinProgrammierdingsbums\SFML\ZeldaLike\ZeldaLike\dataRaw\chars\Player\left2.png"
       inkscape:export-xdpi="25.4"
       inkscape:export-ydpi="25.4">
      <rect
         transform="scale(-1,1)"
         ry="0.67372411"
         y="338.01865"
         x="-34.427242"
         height="3.3786144"
         width="5.5396004"
         id="rect4058-6-6-0-3-0"
         style="fill:#784421;stroke-width:0.1400435" />
      <rect
         transform="scale(-1,1)"
         ry="0.82352585"
         y="336.61285"
         x="-29.589903"
         height="3.4415684"
         width="5.6428204"
         id="rect4058-6-6-0-9"
         style="fill:#a05a2c;stroke-width:0.14265293" />
      <rect
         transform="scale(-1,1)"
         ry="1.5259401"
         y="305.95157"
         x="-35.813751"
         height="32.121037"
         width="12.188848"
         id="rect1194-6-0"
         style="fill:#217821;fill-rule:evenodd;stroke-width:0.2705161" />
      <path
         sodipodi:nodetypes="ccccccccc"
         inkscape:connector-curvature="0"
         id="rect4054-0-3-6-6"
         d="m 36.870644,307.18098 -2.111283,-1.1899 -11.444118,0.1913 v 0 l 11.112,31.83625 3.705223,0.15142 2.70203,0.13 1.877158,0.88701 z"
         style="fill:#165016;stroke-width:0.27211297" />
      <rect
         transform="scale(-1,1)"
         ry="0"
         y="305.38284"
         x="-27.641581"
         height="0.66937083"
         width="2.5666323"
         id="rect1196-0-0"
         style="fill:#deaa87;fill-opacity:1;fill-rule:evenodd;stroke-width:0.26458332" />
      <circle
         transform="scale(-1,1)"
         r="5.0319443"
         cy="300.7106"
         cx="-26.287779"
         id="path1198-2-2"
         style="fill:#deaa87;fill-opacity:1;stroke:none;stroke-width:0.26458332;stroke-opacity:1" />
      <rect
         transform="scale(-1,1)"
         ry="0"
         y="316.00925"
         x="-25.715641"
         height="2.4256551"
         width="3.9247925"
         id="rect1200-8-7"
         style="fill:#deaa87;fill-opacity:1;stroke:none;stroke-width:0.26458332;stroke-opacity:1" />
      <circle
         transform="scale(-1,1)"
         r="0.82575494"
         cy="299.6268"
         cx="-23.707294"
         id="path1206-1-0"
         style="fill:#ffffff;fill-opacity:1;stroke:none;stroke-width:0.26458332;stroke-opacity:1" />
      <path
         inkscape:connector-curvature="0"
         id="path1208-7-8"
         d="m 31.474549,300.86545 c -0.567709,-0.12903 -4.954529,-3.58688 -4.954529,-3.58688 l -1.80634,0.43868 c 0,0 -0.774144,-0.38707 -0.903168,-0.38707 -0.129027,0 -1.341853,0.33546 -1.341853,0.33546 l -0.206439,-0.36126 2.657898,-1.83215 2.477265,-0.0258 2.967556,1.5741 1.058,2.32244 z"
         style="fill:#000000;fill-opacity:1;stroke:none;stroke-width:0.26458332;stroke-opacity:1" />
      <circle
         transform="scale(-1,1)"
         r="0.30965811"
         cy="299.61926"
         cx="-23.436722"
         id="path1210-4-5"
         style="fill:#00aad4;fill-opacity:1;stroke:none;stroke-width:0.26458332;stroke-opacity:1" />
      <path
         sodipodi:nodetypes="cscsc"
         inkscape:connector-curvature="0"
         id="path1214-3-7"
         d="m 21.755204,302.8816 v 0.0182 c 0,0.39302 0.711624,-0.35582 0.711624,-0.35582 l -0.67513,0.39232 z"
         style="fill:#1a1a1a;fill-opacity:1;stroke:none;stroke-width:0.26458332;stroke-opacity:1" />
    </g>
    <g
       id="g1484"
       transform="matrix(1.8642964,0,0,1.3880391,-136.52148,-106.10041)"
       inkscape:export-filename="E:\MeinProgrammierdingsbums\SFML\ZeldaLike\ZeldaLike\dataRaw\chars\Player\left1.png"
       inkscape:export-xdpi="25.4"
       inkscape:export-ydpi="25.4">
      <rect
         transform="scale(-1,1)"
         ry="1.0679064"
         y="336.43597"
         x="0.48965034"
         height="3.3471375"
         width="5.4879909"
         id="rect4058-6-6-0-3-6-4"
         style="fill:#784421;stroke-width:0.13873878" />
      <rect
         transform="scale(-1,1)"
         ry="0.61108816"
         y="337.98773"
         x="-4.6485028"
         height="3.5359988"
         width="5.7976489"
         id="rect4058-6-6-0-2-7"
         style="fill:#a05a2c;stroke-width:0.14656708" />
      <rect
         transform="scale(-1,1)"
         ry="1.5259401"
         y="305.92065"
         x="-6.0350075"
         height="32.121037"
         width="12.188848"
         id="rect1194-6-3-5"
         style="fill:#217821;fill-rule:evenodd;stroke-width:0.2705161" />
      <path
         sodipodi:nodetypes="ccccccccc"
         inkscape:connector-curvature="0"
         id="rect4054-0-3-6-7-4"
         d="m 7.0918983,307.15007 -2.111282,-1.1899 -11.4441163,0.1913 v 0 l 11.1120003,31.83625 3.705223,0.15141 2.7020297,0.13 1.877156,0.88703 z"
         style="fill:#165016;stroke-width:0.27211297" />
      <rect
         transform="scale(-1,1)"
         ry="0"
         y="305.35196"
         x="2.1371646"
         height="0.66937083"
         width="2.5666323"
         id="rect1196-0-8-6"
         style="fill:#deaa87;fill-opacity:1;fill-rule:evenodd;stroke-width:0.26458332" />
      <circle
         transform="scale(-1,1)"
         r="5.0319443"
         cy="300.67972"
         cx="3.4909625"
         id="path1198-2-0-9"
         style="fill:#deaa87;fill-opacity:1;stroke:none;stroke-width:0.26458332;stroke-opacity:1" />
      <rect
         transform="scale(-1,1)"
         ry="0"
         y="319.02396"
         x="4.0631061"
         height="2.4256551"
         width="3.9247925"
         id="rect1200-8-9-6"
         style="fill:#deaa87;fill-opacity:1;stroke:none;stroke-width:0.26458332;stroke-opacity:1" />
      <circle
         transform="scale(-1,1)"
         r="0.82575494"
         cy="299.59589"
         cx="6.0714488"
         id="path1206-1-8-0"
         style="fill:#ffffff;fill-opacity:1;stroke:none;stroke-width:0.26458332;stroke-opacity:1" />
      <path
         inkscape:connector-curvature="0"
         id="path1208-7-5-3"
         d="m 1.6958033,300.83454 c -0.567706,-0.12903 -4.954529,-3.58688 -4.954529,-3.58688 l -1.80634,0.43868 c 0,0 -0.774144,-0.38707 -0.903168,-0.38707 -0.129024,0 -1.3418533,0.33546 -1.3418533,0.33546 l -0.206439,-0.36126 2.6578993,-1.83215 2.477267,-0.0258 2.96755595,1.5741 1.05799705,2.32244 z"
         style="fill:#000000;fill-opacity:1;stroke:none;stroke-width:0.26458332;stroke-opacity:1" />
      <circle
         transform="scale(-1,1)"
         r="0.30965811"
         cy="299.58835"
         cx="6.3420253"
         id="path1210-4-6-1"
         style="fill:#00aad4;fill-opacity:1;stroke:none;stroke-width:0.26458332;stroke-opacity:1" />
      <path
         sodipodi:nodetypes="cscsc"
         inkscape:connector-curvature="0"
         id="path1214-3-1-7"
         d="m -8.023541,302.85069 v 0.0182 c 0,0.39302 0.711626,-0.35582 0.711626,-0.35582 l -0.675132,0.39231 z"
         style="fill:#1a1a1a;fill-opacity:1;stroke:none;stroke-width:0.26458332;stroke-opacity:1" />
    </g>
  </g>
</svg>
