<?xml version="1.0" encoding="UTF-8" standalone="no"?>
<!-- Created with Inkscape (http://www.inkscape.org/) -->

<svg
   xmlns:dc="http://purl.org/dc/elements/1.1/"
   xmlns:cc="http://creativecommons.org/ns#"
   xmlns:rdf="http://www.w3.org/1999/02/22-rdf-syntax-ns#"
   xmlns:svg="http://www.w3.org/2000/svg"
   xmlns="http://www.w3.org/2000/svg"
   xmlns:sodipodi="http://sodipodi.sourceforge.net/DTD/sodipodi-0.dtd"
   xmlns:inkscape="http://www.inkscape.org/namespaces/inkscape"
   width="210mm"
   height="297mm"
   viewBox="0 0 210 297"
   version="1.1"
   id="svg4052"
   inkscape:version="0.92.2 (5c3e80d, 2017-08-06)"
   sodipodi:docname="Player.svg">
  <defs
     id="defs4046" />
  <sodipodi:namedview
     id="base"
     pagecolor="#ffffff"
     bordercolor="#666666"
     borderopacity="1.0"
     inkscape:pageopacity="0.0"
     inkscape:pageshadow="2"
     inkscape:zoom="0.9066"
     inkscape:cx="329"
     inkscape:cy="251.2"
     inkscape:document-units="mm"
     inkscape:current-layer="layer1"
     showgrid="false"
     inkscape:window-width="1920"
     inkscape:window-height="1001"
     inkscape:window-x="-9"
     inkscape:window-y="-9"
     inkscape:window-maximized="1"
     showguides="false" />
  <metadata
     id="metadata4049">
    <rdf:RDF>
      <cc:Work
         rdf:about="">
        <dc:format>image/svg+xml</dc:format>
        <dc:type
           rdf:resource="http://purl.org/dc/dcmitype/StillImage" />
        <dc:title />
      </cc:Work>
    </rdf:RDF>
  </metadata>
  <g
     inkscape:label="Ebene 1"
     inkscape:groupmode="layer"
     id="layer1">
    <g
       id="back2"
       inkscape:label="#g345"
       transform="translate(-39.23,-90)">
      <rect
         inkscape:export-ydpi="25.4"
         inkscape:export-xdpi="25.4"
         inkscape:export-filename="E:\MeinProgrammierdingsbums\SFML\ZeldaLike\ZeldaLike\dataRaw\chars\Player\back2.png"
         y="219.3"
         x="143.7"
         height="7.093"
         width="11.63"
         id="rect4058-6-4"
         style="fill:#a05a2c;stroke-width:0.294" />
      <path
         inkscape:export-ydpi="25.4"
         inkscape:export-xdpi="25.4"
         inkscape:export-filename="E:\MeinProgrammierdingsbums\SFML\ZeldaLike\ZeldaLike\dataRaw\chars\Player\back2.png"
         sodipodi:nodetypes="ccccccccc"
         inkscape:connector-curvature="0"
         id="rect4054-0-5"
         d="M 137.9,190.2 143.3,189 H 176.4 L 181.7,189.8 193,222.8 188.8,222 131.9,221.9 129,222.8 Z"
         style="fill:#165016;stroke-width:0.3301" />
      <rect
         inkscape:export-ydpi="25.4"
         inkscape:export-xdpi="25.4"
         inkscape:export-filename="E:\MeinProgrammierdingsbums\SFML\ZeldaLike\ZeldaLike\dataRaw\chars\Player\back2.png"
         y="186.1"
         x="153.4"
         height="2.921"
         width="11.2"
         id="rect4062-3-1"
         style="fill:#deaa87;stroke-width:0.3301" />
      <rect
         inkscape:export-ydpi="25.4"
         inkscape:export-xdpi="25.4"
         inkscape:export-filename="E:\MeinProgrammierdingsbums\SFML\ZeldaLike\ZeldaLike\dataRaw\chars\Player\back2.png"
         y="221.7"
         x="165.5"
         height="7.093"
         width="11.63"
         id="rect4058-4-4-2"
         style="fill:#a05a2c;stroke-width:0.294" />
      <ellipse
         inkscape:export-ydpi="25.4"
         inkscape:export-xdpi="25.4"
         inkscape:export-filename="E:\MeinProgrammierdingsbums\SFML\ZeldaLike\ZeldaLike\dataRaw\chars\Player\back2.png"
         ry="11.87"
         rx="15.17"
         cy="176.8"
         cx="159.1"
         id="path4081-9-2"
         style="fill:#deaa87;stroke-width:0.3301" />
      <path
         inkscape:export-ydpi="25.4"
         inkscape:export-xdpi="25.4"
         inkscape:export-filename="E:\MeinProgrammierdingsbums\SFML\ZeldaLike\ZeldaLike\dataRaw\chars\Player\back2.png"
         sodipodi:nodetypes="cccccc"
         inkscape:connector-curvature="0"
         id="rect4929-3-8"
         d="M 174.1,189.1 177.9,189 182,189.8 183.3,194.7 H 174.1 Z"
         style="fill:#447821;stroke-width:0.2917" />
      <path
         inkscape:export-ydpi="25.4"
         inkscape:export-xdpi="25.4"
         inkscape:export-filename="E:\MeinProgrammierdingsbums\SFML\ZeldaLike\ZeldaLike\dataRaw\chars\Player\back2.png"
         sodipodi:nodetypes="cccccc"
         inkscape:connector-curvature="0"
         id="rect4929-7-6-1"
         d="M 145.9,189.4 142,189.3 137.9,190.2 136.7,195.1 H 145.9 Z"
         style="fill:#447821;stroke-width:0.2917" />
      <path
         inkscape:export-ydpi="25.4"
         inkscape:export-xdpi="25.4"
         inkscape:export-filename="E:\MeinProgrammierdingsbums\SFML\ZeldaLike\ZeldaLike\dataRaw\chars\Player\back2.png"
         inkscape:connector-curvature="0"
         id="path1079-6"
         d="M 142.8,177.8 148.7,181.5 H 158.4 L 161.4,182.6 166.8,179.1 174.9,178 172.4,170 165.9,165.4 154.7,164.7 147.4,167.9 143.9,172.8 Z"
         style="fill:#000000;fill-opacity:1;stroke:none;stroke-width:0.2834;stroke-opacity:1" />
    </g>
    <g
       id="back3"
       inkscape:label="#g355"
       transform="translate(-39.23,-90)">
      <rect
         inkscape:export-ydpi="25.4"
         inkscape:export-xdpi="25.4"
         inkscape:export-filename="E:\MeinProgrammierdingsbums\SFML\ZeldaLike\ZeldaLike\dataRaw\chars\Player\back3.png"
         y="217.5"
         x="247.2"
         height="7.104"
         width="11.63"
         id="rect4058-4-4-8"
         style="fill:#a05a2c;stroke-width:0.2942" />
      <path
         inkscape:export-ydpi="25.4"
         inkscape:export-xdpi="25.4"
         inkscape:export-filename="E:\MeinProgrammierdingsbums\SFML\ZeldaLike\ZeldaLike\dataRaw\chars\Player\back3.png"
         sodipodi:nodetypes="ccccccccc"
         inkscape:connector-curvature="0"
         id="rect4054-0-4"
         d="M 220,188.1 225.3,186.9 H 258.5 L 263.7,187.7 275,220.8 270.9,219.9 213.9,219.8 211,220.7 Z"
         style="fill:#165016;stroke-width:0.3304" />
      <rect
         inkscape:export-ydpi="25.4"
         inkscape:export-xdpi="25.4"
         inkscape:export-filename="E:\MeinProgrammierdingsbums\SFML\ZeldaLike\ZeldaLike\dataRaw\chars\Player\back3.png"
         y="219.5"
         x="225.7"
         height="7.104"
         width="11.63"
         id="rect4058-6-8"
         style="fill:#a05a2c;stroke-width:0.2942" />
      <rect
         inkscape:export-ydpi="25.4"
         inkscape:export-xdpi="25.4"
         inkscape:export-filename="E:\MeinProgrammierdingsbums\SFML\ZeldaLike\ZeldaLike\dataRaw\chars\Player\back3.png"
         y="184"
         x="235.4"
         height="2.925"
         width="11.2"
         id="rect4062-3-6"
         style="fill:#deaa87;stroke-width:0.3304" />
      <ellipse
         inkscape:export-ydpi="25.4"
         inkscape:export-xdpi="25.4"
         inkscape:export-filename="E:\MeinProgrammierdingsbums\SFML\ZeldaLike\ZeldaLike\dataRaw\chars\Player\back3.png"
         ry="11.89"
         rx="15.17"
         cy="174.7"
         cx="241.1"
         id="path4081-9-6"
         style="fill:#deaa87;stroke-width:0.3304" />
      <path
         inkscape:export-ydpi="25.4"
         inkscape:export-xdpi="25.4"
         inkscape:export-filename="E:\MeinProgrammierdingsbums\SFML\ZeldaLike\ZeldaLike\dataRaw\chars\Player\back3.png"
         sodipodi:nodetypes="cccccc"
         inkscape:connector-curvature="0"
         id="rect4929-3-1"
         d="M 256.1,187 260,186.9 264.1,187.7 265.3,192.7 H 256.1 Z"
         style="fill:#447821;stroke-width:0.292" />
      <path
         inkscape:export-ydpi="25.4"
         inkscape:export-xdpi="25.4"
         inkscape:export-filename="E:\MeinProgrammierdingsbums\SFML\ZeldaLike\ZeldaLike\dataRaw\chars\Player\back3.png"
         sodipodi:nodetypes="cccccc"
         inkscape:connector-curvature="0"
         id="rect4929-7-6-0"
         d="M 227.9,187.3 224.1,187.2 220,188.1 218.7,193 H 227.9 Z"
         style="fill:#447821;stroke-width:0.292" />
      <path
         inkscape:export-ydpi="25.4"
         inkscape:export-xdpi="25.4"
         inkscape:export-filename="E:\MeinProgrammierdingsbums\SFML\ZeldaLike\ZeldaLike\dataRaw\chars\Player\back3.png"
         inkscape:connector-curvature="0"
         id="path1079-4"
         d="M 224.8,175.7 230.7,179.4 H 240.5 L 243.4,180.5 248.9,177 256.9,175.9 254.4,167.8 247.9,163.2 236.8,162.6 229.5,165.8 225.9,170.7 Z"
         style="fill:#000000;fill-opacity:1;stroke:none;stroke-width:0.2836;stroke-opacity:1" />
    </g>
    <g
       id="front1"
       inkscape:label="#g502">
      <path
         sodipodi:nodetypes="ccccccccc"
         inkscape:connector-curvature="0"
         id="rect4054"
         d="M 14.25,29.9 19.55,28.8 H 52.75 L 57.95,29.6 69.25,62 65.15,61.2 8.148,61.1 5.248,61.9 Z"
         style="fill:#165016;stroke-width:0.3273" />
      <rect
         ry="2.03"
         y="28.8"
         x="17.25"
         height="32.09"
         width="38.97"
         id="rect4932"
         style="fill:#338000;stroke-width:0.3157" />
      <rect
         y="60.7"
         x="19.95"
         height="6.971"
         width="11.63"
         id="rect4058"
         style="fill:#a05a2c;stroke-width:0.2915" />
      <rect
         y="60.8"
         x="41.75"
         height="6.971"
         width="11.63"
         id="rect4058-4"
         style="fill:#a05a2c;stroke-width:0.2915" />
      <rect
         inkscape:label="#rect4092-4"
         y="46"
         x="42.45"
         height="4.408"
         width="9.273"
         id="swordHand"
         style="fill:#ffb380;stroke-width:0.3273" />
      <path
         sodipodi:nodetypes="cccccc"
         inkscape:connector-curvature="0"
         id="rect4929"
         d="M 50.35,28.8 H 54.25 L 58.25,29.6 59.55,34.4 H 50.35 Z"
         style="fill:#447821;stroke-width:0.2892" />
      <rect
         y="46.1"
         x="22.35"
         height="4.408"
         width="9.273"
         id="rect4092-4-3"
         style="fill:#ffb380;stroke-width:0.3273" />
      <path
         sodipodi:nodetypes="cccccc"
         inkscape:connector-curvature="0"
         id="rect4929-7"
         d="M 22.15,29.1 H 18.25 L 14.25,29.9 12.95,34.7 H 22.15 Z"
         style="fill:#447821;stroke-width:0.2892" />
      <rect
         y="25.8"
         x="31.75"
         height="2.87"
         width="11.2"
         id="rect4062-5-5"
         style="fill:#deaa87;stroke-width:0.3273" />
      <ellipse
         ry="11.67"
         rx="15.17"
         cy="16.76"
         cx="37.45"
         id="path4081-4-4"
         style="fill:#deaa87;stroke-width:0.3273" />
      <ellipse
         ry="1.543"
         rx="2.006"
         cy="13.06"
         cx="31.45"
         id="path4964-1-8"
         style="fill:#ffffff;stroke-width:0.3273" />
      <ellipse
         ry="0.7817"
         rx="1.016"
         cy="13.12"
         cx="31.65"
         id="path4964-6-4-8"
         style="fill:#aaccff;stroke-width:0.1658" />
      <ellipse
         ry="1.543"
         rx="2.006"
         cy="13.02"
         cx="42.85"
         id="path4964-9-8-6"
         style="fill:#ffffff;stroke-width:0.3273" />
      <ellipse
         ry="0.7817"
         rx="1.016"
         cy="13.08"
         cx="42.65"
         id="path4964-6-1-8-9"
         style="fill:#aaccff;stroke-width:0.1658" />
      <path
         inkscape:connector-curvature="0"
         id="path4999-5-4"
         d="M 37.45,16.39 39.15,18.9 H 36.35"
         style="fill:#a05a2c;fill-opacity:0;stroke:#8d5228;stroke-width:0.3273px;stroke-linecap:butt;stroke-linejoin:miter;stroke-opacity:0.9883" />
      <path
         sodipodi:nodetypes="cscsc"
         inkscape:connector-curvature="0"
         id="path5009-5-0"
         d="M 42.65,21.9 C 42.65,21.9 40.25,23.4 37.35,23.4 34.35,23.4 31.95,21.9 31.95,21.9 31.95,21.9 34.15,23.4 37.15,23.4 40.05,23.4 42.65,21.9 42.65,21.9 Z"
         style="fill:none;fill-opacity:1;stroke:#000000;stroke-width:0.3278;stroke-opacity:1" />
      <path
         inkscape:connector-curvature="0"
         id="path5020-6-2"
         d="M 22.95,8.734 23.15,13.6 29.05,10.3 33.75,10.51 37.45,8.884 41.45,10.56 45.35,9.754 50.05,10.51 49.55,7.114 44.35,4.474 38.45,3.964 H 31.85 C 31.85,3.964 26.25,5.584 25.95,5.744 25.75,5.894 22.95,8.784 22.95,8.784 Z"
         style="fill:#000000;fill-opacity:1;stroke:#000000;stroke-width:0.3273px;stroke-linecap:butt;stroke-linejoin:miter;stroke-opacity:1" />
      <rect
         inkscape:label="#rect4194"
         y="2.604"
         x="5.248"
         height="1.239"
         width="0.6193"
         id="Base"
         style="fill:#784421;fill-opacity:1;stroke:none;stroke-width:0.2646;stroke-opacity:1" />
    </g>
    <g
       id="back1"
       inkscape:label="#g359">
      <path
         sodipodi:nodetypes="ccccccccc"
         inkscape:connector-curvature="0"
         id="rect4054-0"
         d="M 13.86,102.2 19.19,101.1 H 52.38 L 57.62,101.9 68.97,134.3 64.77,133.5 7.81,133.4 4.95,134.2 Z"
         style="fill:#165016;stroke-width:0.3273" />
      <rect
         y="133.1"
         x="19.6"
         height="6.971"
         width="11.63"
         id="rect4058-6"
         style="fill:#a05a2c;stroke-width:0.2915" />
      <rect
         y="98.2"
         x="29.32"
         height="2.87"
         width="11.2"
         id="rect4062-3"
         style="fill:#deaa87;stroke-width:0.3273" />
      <rect
         y="133.2"
         x="41.39"
         height="6.971"
         width="11.63"
         id="rect4058-4-4"
         style="fill:#a05a2c;stroke-width:0.2915" />
      <ellipse
         ry="11.67"
         rx="15.17"
         cy="89.1"
         cx="34.99"
         id="path4081-9"
         style="fill:#deaa87;stroke-width:0.3273" />
      <path
         sodipodi:nodetypes="cccccc"
         inkscape:connector-curvature="0"
         id="rect4929-3"
         d="M 50.04,101.1 H 53.88 L 57.97,101.9 59.21,106.7 H 50.04 Z"
         style="fill:#447821;stroke-width:0.2892" />
      <path
         sodipodi:nodetypes="cccccc"
         inkscape:connector-curvature="0"
         id="rect4929-7-6"
         d="M 21.79,101.4 H 17.95 L 13.86,102.2 12.62,107 H 21.79 Z"
         style="fill:#447821;stroke-width:0.2892" />
      <path
         inkscape:connector-curvature="0"
         id="path1079"
         d="M 18.72,90.1 24.61,93.7 H 34.38 L 37.32,94.7 42.75,91.3 50.81,90.3 48.33,82.3 41.82,77.8 30.66,77.2 23.37,80.3 19.81,85.1 Z"
         style="fill:#000000;fill-opacity:1;stroke:none;stroke-width:0.281;stroke-opacity:1" />
    </g>
    <g
       id="right1"
       inkscape:label="#g384"
       transform="translate(10.21,1.459)">
      <rect
         ry="2.124"
         y="168.5"
         x="13.9"
         height="44.72"
         width="22.72"
         id="rect1194"
         style="fill:#217821;fill-rule:evenodd;stroke-width:0.4358" />
      <path
         sodipodi:nodetypes="ccccccccc"
         inkscape:connector-curvature="0"
         id="rect4054-0-3"
         d="M 11.9,170.2 15.9,168.6 37.2,168.8 V 168.8 L 16.5,213.2 9.6,213.4 4.5,213.6 1,214.8 Z"
         style="fill:#165016;stroke-width:0.4384" />
      <rect
         ry="0.675"
         y="213.3"
         x="21.3"
         height="4.616"
         width="10.14"
         id="rect4058-6-6"
         style="fill:#a05a2c;stroke-width:0.2214" />
      <rect
         ry="0"
         y="167.7"
         x="29.1"
         height="0.9319"
         width="4.785"
         id="rect1196"
         style="fill:#deaa87;fill-opacity:1;fill-rule:evenodd;stroke-width:0.4262" />
      <ellipse
         ry="7.005"
         rx="9.381"
         cy="161.2"
         cx="31.7"
         id="path1198"
         style="fill:#deaa87;fill-opacity:1;stroke:none;stroke-width:0.4262;stroke-opacity:1" />
      <rect
         inkscape:label="#rect1200"
         ry="0"
         y="184.1"
         x="32.9"
         height="3.377"
         width="7.317"
         id="swordHand_2"
         style="fill:#deaa87;fill-opacity:1;stroke:none;stroke-width:0.4262;stroke-opacity:1" />
      <ellipse
         ry="1.15"
         rx="1.539"
         cy="159.7"
         cx="36.5"
         id="path1206"
         style="fill:#ffffff;fill-opacity:1;stroke:none;stroke-width:0.4262;stroke-opacity:1" />
      <path
         inkscape:connector-curvature="0"
         id="path1208"
         d="M 22,161.4 C 23,161.3 31.2,156.4 31.2,156.4 L 34.6,157.1 C 34.6,157.1 36,156.5 36.3,156.5 36.5,156.5 38.8,157 38.8,157 L 39.2,156.5 34.2,153.9 H 29.6 L 24.1,156.1 22.1,159.3 Z"
         style="fill:#000000;fill-opacity:1;stroke:none;stroke-width:0.4262;stroke-opacity:1" />
      <ellipse
         ry="0.4311"
         rx="0.5773"
         cy="159.7"
         cx="37"
         id="path1210"
         style="fill:#00aad4;fill-opacity:1;stroke:none;stroke-width:0.4262;stroke-opacity:1" />
      <path
         sodipodi:nodetypes="cscsc"
         inkscape:connector-curvature="0"
         id="path1214"
         d="M 40.1,164.2 V 164.3 C 40.1,164.8 38.8,163.8 38.8,163.8 L 40,164.3 Z"
         style="fill:#1a1a1a;fill-opacity:1;stroke:none;stroke-width:0.4262;stroke-opacity:1" />
      <rect
         inkscape:label="#rect361"
         y="152.5"
         x="1"
         height="1.459"
         width="0.8756"
         id="Base_3"
         style="fill:#784421;fill-opacity:1;stroke:none;stroke-width:0.2646;stroke-opacity:1" />
    </g>
    <g
       id="left1"
       inkscape:label="#g217">
      <rect
         transform="scale(-1,1)"
         ry="1.482"
         y="285.8"
         x="-39.27"
         height="4.646"
         width="10.23"
         id="rect4058-6-6-0-3-6-4"
         style="fill:#784421;stroke-width:0.2232" />
      <rect
         transform="scale(-1,1)"
         ry="0.8482"
         y="287.9"
         x="-48.77"
         height="4.908"
         width="10.81"
         id="rect4058-6-6-0-2-7"
         style="fill:#a05a2c;stroke-width:0.2358" />
      <rect
         transform="scale(-1,1)"
         ry="2.118"
         y="243.4"
         x="-51.37"
         height="44.59"
         width="22.72"
         id="rect1194-6-3-5"
         style="fill:#217821;fill-rule:evenodd;stroke-width:0.4352" />
      <path
         sodipodi:nodetypes="ccccccccc"
         inkscape:connector-curvature="0"
         id="rect4054-0-3-6-7-4"
         d="M 53.37,245.1 49.47,243.5 28.07,243.7 V 243.7 L 48.77,287.9 55.77,288.1 60.77,288.3 64.27,289.6 Z"
         style="fill:#165016;stroke-width:0.4377" />
      <rect
         transform="scale(-1,1)"
         ry="0"
         y="242.6"
         x="-36.17"
         height="0.9291"
         width="4.785"
         id="rect1196-0-8-6"
         style="fill:#deaa87;fill-opacity:1;fill-rule:evenodd;stroke-width:0.4256" />
      <ellipse
         ry="6.985"
         rx="9.381"
         transform="scale(-1,1)"
         cy="236.2"
         cx="-33.67"
         id="path1198-2-0-9"
         style="fill:#deaa87;fill-opacity:1;stroke:none;stroke-width:0.4256;stroke-opacity:1" />
      <rect
         inkscape:label="#rect1200-8-9-6"
         transform="scale(-1,1)"
         ry="0"
         y="261.6"
         x="-32.57"
         height="3.367"
         width="7.317"
         id="swordHand_1"
         style="fill:#deaa87;fill-opacity:1;stroke:none;stroke-width:0.4256;stroke-opacity:1" />
      <ellipse
         ry="1.146"
         rx="1.539"
         transform="scale(-1,1)"
         cy="234.7"
         cx="-28.87"
         id="path1206-1-8-0"
         style="fill:#ffffff;fill-opacity:1;stroke:none;stroke-width:0.4256;stroke-opacity:1" />
      <path
         inkscape:connector-curvature="0"
         id="path1208-7-5-3"
         d="M 43.27,236.4 C 42.27,236.2 34.07,231.4 34.07,231.4 L 30.67,232 C 30.67,232 29.27,231.5 29.07,231.5 28.77,231.5 26.57,231.9 26.57,231.9 L 26.17,231.4 31.07,228.9 35.67,228.8 41.27,231 43.17,234.3 Z"
         style="fill:#000000;fill-opacity:1;stroke:none;stroke-width:0.4256;stroke-opacity:1" />
      <ellipse
         ry="0.4298"
         rx="0.5773"
         transform="scale(-1,1)"
         cy="234.6"
         cx="-28.37"
         id="path1210-4-6-1"
         style="fill:#00aad4;fill-opacity:1;stroke:none;stroke-width:0.4256;stroke-opacity:1" />
      <path
         sodipodi:nodetypes="cscsc"
         inkscape:connector-curvature="0"
         id="path1214-3-1-7"
         d="M 25.17,239.2 V 239.2 C 25.17,239.7 26.47,238.7 26.47,238.7 L 25.27,239.2 Z"
         style="fill:#1a1a1a;fill-opacity:1;stroke:none;stroke-width:0.4256;stroke-opacity:1" />
      <rect
         inkscape:label="#rect162-5"
         style="fill:#784421;fill-opacity:1;stroke:none;stroke-width:0.107;stroke-opacity:1"
         id="Base_1"
         width="1.167"
         height="0.5848"
         x="24.29"
         y="228.2" />
    </g>
    <g
       id="left2"
       inkscape:label="#g243">
      <rect
         transform="scale(-1,1)"
         ry="0.9384"
         y="289.6"
         x="-96.13"
         height="4.706"
         width="10.33"
         id="rect4058-6-6-0-3-0"
         style="fill:#784421;stroke-width:0.2257" />
      <rect
         transform="scale(-1,1)"
         ry="1.147"
         y="287.6"
         x="-87.11"
         height="4.793"
         width="10.52"
         id="rect4058-6-6-0-9"
         style="fill:#a05a2c;stroke-width:0.2299" />
      <rect
         transform="scale(-1,1)"
         ry="2.125"
         y="244.9"
         x="-98.71"
         height="44.74"
         width="22.72"
         id="rect1194-6-0"
         style="fill:#217821;fill-rule:evenodd;stroke-width:0.4359" />
      <path
         sodipodi:nodetypes="ccccccccc"
         inkscape:connector-curvature="0"
         id="rect4054-0-3-6-6"
         d="M 100.7,246.6 96.75,244.9 75.41,245.2 V 245.2 L 96.13,289.6 103,289.8 108.1,289.9 111.6,291.2 Z"
         style="fill:#165016;stroke-width:0.4385" />
      <rect
         transform="scale(-1,1)"
         ry="0"
         y="244.1"
         x="-83.48"
         height="0.9323"
         width="4.785"
         id="rect1196-0-0"
         style="fill:#deaa87;fill-opacity:1;fill-rule:evenodd;stroke-width:0.4263" />
      <ellipse
         ry="7.008"
         rx="9.381"
         transform="scale(-1,1)"
         cy="237.6"
         cx="-80.95"
         id="path1198-2-2"
         style="fill:#deaa87;fill-opacity:1;stroke:none;stroke-width:0.4263;stroke-opacity:1" />
      <rect
         inkscape:label="#rect1200-8-7"
         transform="scale(-1,1)"
         ry="0"
         y="258.9"
         x="-79.89"
         height="3.378"
         width="7.317"
         id="swordHand_8"
         style="fill:#deaa87;fill-opacity:1;stroke:none;stroke-width:0.4263;stroke-opacity:1" />
      <ellipse
         ry="1.15"
         rx="1.539"
         transform="scale(-1,1)"
         cy="236.1"
         cx="-76.14"
         id="path1206-1-0"
         style="fill:#ffffff;fill-opacity:1;stroke:none;stroke-width:0.4263;stroke-opacity:1" />
      <path
         inkscape:connector-curvature="0"
         id="path1208-7-8"
         d="M 90.62,237.8 C 89.56,237.6 81.39,232.8 81.39,232.8 L 78.02,233.4 C 78.02,233.4 76.57,232.9 76.33,232.9 76.09,232.9 73.83,233.4 73.83,233.4 L 73.45,232.9 78.4,230.3 H 83.02 L 88.55,232.5 90.53,235.7 Z"
         style="fill:#000000;fill-opacity:1;stroke:none;stroke-width:0.4263;stroke-opacity:1" />
      <ellipse
         ry="0.4313"
         rx="0.5773"
         transform="scale(-1,1)"
         cy="236.1"
         cx="-75.64"
         id="path1210-4-5"
         style="fill:#00aad4;fill-opacity:1;stroke:none;stroke-width:0.4263;stroke-opacity:1" />
      <path
         sodipodi:nodetypes="cscsc"
         inkscape:connector-curvature="0"
         id="path1214-3-7"
         d="M 72.5,240.6 V 240.6 C 72.5,241.2 73.83,240.1 73.83,240.1 L 72.57,240.7 Z"
         style="fill:#1a1a1a;fill-opacity:1;stroke:none;stroke-width:0.4263;stroke-opacity:1" />
      <rect
         inkscape:label="#rect160-2"
         y="229.1"
         x="71.57"
         height="1.218"
         width="1.218"
         id="Base_2"
         style="fill:#784421;fill-opacity:1;stroke:none;stroke-width:0.1577;stroke-opacity:1" />
    </g>
    <g
       id="left3"
       inkscape:label="#g267">
      <rect
         transform="scale(-1,1)"
         ry="2.124"
         y="242.6"
         x="-162.8"
         height="44.72"
         width="22.72"
         id="rect1194-1"
         style="fill:#217821;fill-rule:evenodd;stroke-width:0.4358" />
      <path
         sodipodi:nodetypes="ccccccccc"
         inkscape:connector-curvature="0"
         id="rect4054-0-3-3"
         d="M 164.8,244.3 160.9,242.7 139.5,242.9 V 242.9 L 160.2,287.3 167.2,287.5 172.2,287.7 175.7,288.9 Z"
         style="fill:#165016;stroke-width:0.4384" />
      <rect
         transform="scale(-1,1)"
         ry="0.675"
         y="287.4"
         x="-155.4"
         height="4.616"
         width="10.14"
         id="rect4058-6-6-9"
         style="fill:#a05a2c;stroke-width:0.2214" />
      <rect
         transform="scale(-1,1)"
         ry="0"
         y="241.8"
         x="-147.6"
         height="0.9319"
         width="4.785"
         id="rect1196-4"
         style="fill:#deaa87;fill-opacity:1;fill-rule:evenodd;stroke-width:0.4262" />
      <ellipse
         ry="7.005"
         rx="9.381"
         transform="scale(-1,1)"
         cy="235.3"
         cx="-145.1"
         id="path1198-5"
         style="fill:#deaa87;fill-opacity:1;stroke:none;stroke-width:0.4262;stroke-opacity:1" />
      <rect
         inkscape:label="#rect1200-6"
         transform="scale(-1,1)"
         ry="0"
         y="258.3"
         x="-143.9"
         height="3.377"
         width="7.317"
         id="swordHand_9"
         style="fill:#deaa87;fill-opacity:1;stroke:none;stroke-width:0.4262;stroke-opacity:1" />
      <ellipse
         ry="1.15"
         rx="1.539"
         transform="scale(-1,1)"
         cy="233.8"
         cx="-140.3"
         id="path1206-6"
         style="fill:#ffffff;fill-opacity:1;stroke:none;stroke-width:0.4262;stroke-opacity:1" />
      <path
         inkscape:connector-curvature="0"
         id="path1208-5"
         d="M 154.7,235.5 C 153.7,235.4 145.5,230.6 145.5,230.6 L 142.1,231.2 C 142.1,231.2 140.7,230.6 140.5,230.6 140.2,230.6 138,231.1 138,231.1 L 137.6,230.6 142.5,228 H 147.1 L 152.7,230.2 154.6,233.4 Z"
         style="fill:#000000;fill-opacity:1;stroke:none;stroke-width:0.4262;stroke-opacity:1" />
      <ellipse
         ry="0.4311"
         rx="0.5773"
         transform="scale(-1,1)"
         cy="233.8"
         cx="-139.8"
         id="path1210-6"
         style="fill:#00aad4;fill-opacity:1;stroke:none;stroke-width:0.4262;stroke-opacity:1" />
      <path
         sodipodi:nodetypes="cscsc"
         inkscape:connector-curvature="0"
         id="path1214-7"
         d="M 136.6,238.4 V 238.4 C 136.6,238.9 138,237.9 138,237.9 L 136.7,238.4 Z"
         style="fill:#1a1a1a;fill-opacity:1;stroke:none;stroke-width:0.4262;stroke-opacity:1" />
      <rect
         inkscape:label="#rect160-2"
         y="226.8"
         x="135.7"
         height="1.218"
         width="1.218"
         id="Base_4"
         style="fill:#784421;fill-opacity:1;stroke:none;stroke-width:0.1577;stroke-opacity:1" />
    </g>
    <g
       id="right2"
       inkscape:label="#g191">
      <rect
         ry="0.9384"
         y="214.6"
         x="75.4"
         height="4.706"
         width="10.33"
         id="rect4058-6-6-0-3"
         style="fill:#784421;stroke-width:0.2257" />
      <rect
         ry="1.147"
         y="212.7"
         x="84.41"
         height="4.793"
         width="10.52"
         id="rect4058-6-6-0"
         style="fill:#a05a2c;stroke-width:0.2299" />
      <rect
         ry="2.125"
         y="170"
         x="72.81"
         height="44.74"
         width="22.72"
         id="rect1194-6"
         style="fill:#217821;fill-rule:evenodd;stroke-width:0.4359" />
      <path
         sodipodi:nodetypes="ccccccccc"
         inkscape:connector-curvature="0"
         id="rect4054-0-3-6"
         d="M 70.84,171.7 74.78,170 96.11,170.3 V 170.3 L 75.4,214.6 68.49,214.9 63.45,215 59.95,216.3 Z"
         style="fill:#165016;stroke-width:0.4385" />
      <rect
         ry="0"
         y="169.2"
         x="88.05"
         height="0.9323"
         width="4.785"
         id="rect1196-0"
         style="fill:#deaa87;fill-opacity:1;fill-rule:evenodd;stroke-width:0.4263" />
      <ellipse
         ry="7.008"
         rx="9.381"
         cy="162.7"
         cx="90.57"
         id="path1198-2"
         style="fill:#deaa87;fill-opacity:1;stroke:none;stroke-width:0.4263;stroke-opacity:1" />
      <rect
         inkscape:label="#rect1200-8"
         ry="0"
         y="184"
         x="91.64"
         height="3.378"
         width="7.317"
         id="swordHand_5"
         style="fill:#deaa87;fill-opacity:1;stroke:none;stroke-width:0.4263;stroke-opacity:1" />
      <ellipse
         ry="1.15"
         rx="1.539"
         cy="161.2"
         cx="95.38"
         id="path1206-1"
         style="fill:#ffffff;fill-opacity:1;stroke:none;stroke-width:0.4263;stroke-opacity:1" />
      <path
         inkscape:connector-curvature="0"
         id="path1208-7"
         d="M 80.9,162.9 C 81.96,162.7 90.14,157.9 90.14,157.9 L 93.5,158.5 C 93.5,158.5 94.95,158 95.19,158 95.43,158 97.69,158.4 97.69,158.4 L 98.08,157.9 93.12,155.4 H 88.5 L 82.97,157.5 81,160.8 Z"
         style="fill:#000000;fill-opacity:1;stroke:none;stroke-width:0.4263;stroke-opacity:1" />
      <ellipse
         ry="0.4313"
         rx="0.5773"
         cy="161.2"
         cx="95.89"
         id="path1210-4"
         style="fill:#00aad4;fill-opacity:1;stroke:none;stroke-width:0.4263;stroke-opacity:1" />
      <path
         sodipodi:nodetypes="cscsc"
         inkscape:connector-curvature="0"
         id="path1214-3"
         d="M 99.02,165.7 V 165.7 C 99.02,166.3 97.69,165.2 97.69,165.2 L 98.95,165.8 Z"
         style="fill:#1a1a1a;fill-opacity:1;stroke:none;stroke-width:0.4263;stroke-opacity:1" />
      <rect
         inkscape:label="#rect160-8"
         y="154.1"
         x="59.95"
         height="1.218"
         width="1.218"
         id="Base_5"
         style="fill:#784421;fill-opacity:1;stroke:none;stroke-width:0.1577;stroke-opacity:1" />
    </g>
    <g
       id="right3"
       inkscape:label="#g217">
      <rect
         ry="1.482"
         y="215.4"
         x="139.1"
         height="4.646"
         width="10.23"
         id="rect4058-6-6-0-3-6"
         style="fill:#784421;stroke-width:0.2232" />
      <rect
         ry="0.8482"
         y="217.5"
         x="129.5"
         height="4.908"
         width="10.81"
         id="rect4058-6-6-0-2"
         style="fill:#a05a2c;stroke-width:0.2358" />
      <rect
         ry="2.118"
         y="173"
         x="126.9"
         height="44.59"
         width="22.72"
         id="rect1194-6-3"
         style="fill:#217821;fill-rule:evenodd;stroke-width:0.4352" />
      <path
         sodipodi:nodetypes="ccccccccc"
         inkscape:connector-curvature="0"
         id="rect4054-0-3-6-7"
         d="M 125,174.7 128.9,173.1 150.2,173.4 V 173.4 L 129.5,217.5 122.6,217.8 117.6,217.9 114.1,219.2 Z"
         style="fill:#165016;stroke-width:0.4377" />
      <rect
         ry="0"
         y="172.2"
         x="142.2"
         height="0.9291"
         width="4.785"
         id="rect1196-0-8"
         style="fill:#deaa87;fill-opacity:1;fill-rule:evenodd;stroke-width:0.4256" />
      <ellipse
         ry="6.985"
         rx="9.381"
         cy="165.8"
         cx="144.7"
         id="path1198-2-0"
         style="fill:#deaa87;fill-opacity:1;stroke:none;stroke-width:0.4256;stroke-opacity:1" />
      <rect
         inkscape:label="#rect1200-8-9"
         ry="0"
         y="191.2"
         x="145.8"
         height="3.367"
         width="7.317"
         id="swordHand_6"
         style="fill:#deaa87;fill-opacity:1;stroke:none;stroke-width:0.4256;stroke-opacity:1" />
      <ellipse
         ry="1.146"
         rx="1.539"
         cy="164.3"
         cx="149.5"
         id="path1206-1-8"
         style="fill:#ffffff;fill-opacity:1;stroke:none;stroke-width:0.4256;stroke-opacity:1" />
      <path
         inkscape:connector-curvature="0"
         id="path1208-7-5"
         d="M 135,166 C 136.1,165.8 144.3,161 144.3,161 L 147.6,161.6 C 147.6,161.6 149.1,161.1 149.3,161.1 149.6,161.1 151.8,161.5 151.8,161.5 L 152.2,161 147.3,158.5 H 142.6 L 137.1,160.6 135.1,163.9 Z"
         style="fill:#000000;fill-opacity:1;stroke:none;stroke-width:0.4256;stroke-opacity:1" />
      <ellipse
         ry="0.4298"
         rx="0.5773"
         cy="164.2"
         cx="150"
         id="path1210-4-6"
         style="fill:#00aad4;fill-opacity:1;stroke:none;stroke-width:0.4256;stroke-opacity:1" />
      <path
         sodipodi:nodetypes="cscsc"
         inkscape:connector-curvature="0"
         id="path1214-3-1"
         d="M 153.2,168.8 V 168.8 C 153.2,169.3 151.8,168.3 151.8,168.3 L 153.1,168.9 Z"
         style="fill:#1a1a1a;fill-opacity:1;stroke:none;stroke-width:0.4256;stroke-opacity:1" />
      <rect
         inkscape:label="#rect160-3"
         y="157.2"
         x="114.1"
         height="1.218"
         width="1.218"
         id="Base_6"
         style="fill:#784421;fill-opacity:1;stroke:none;stroke-width:0.1577;stroke-opacity:1" />
    </g>
    <g
       id="front2"
       inkscape:label="#g412">
      <path
         sodipodi:nodetypes="ccccccccc"
         inkscape:connector-curvature="0"
         id="rect4054-6"
         d="M 99.96,29.6 105.3,28.5 H 138.5 L 143.7,29.3 155.1,61.7 150.9,60.9 93.86,60.8 91.06,61.7 Z"
         style="fill:#165016;stroke-width:0.3273" />
      <rect
         y="58.5"
         x="106"
         height="6.971"
         width="11.63"
         id="rect4058-5"
         style="fill:#a05a2c;stroke-width:0.2915" />
      <rect
         y="60.5"
         x="126.9"
         height="6.971"
         width="11.63"
         id="rect4058-4-6"
         style="fill:#a05a2c;stroke-width:0.2915" />
      <rect
         ry="2.03"
         y="28.5"
         x="103.1"
         height="32.09"
         width="38.97"
         id="rect4932-0"
         style="fill:#338000;stroke-width:0.3157" />
      <rect
         y="25.6"
         x="115.4"
         height="2.87"
         width="11.2"
         id="rect4062-5"
         style="fill:#deaa87;stroke-width:0.3273" />
      <ellipse
         ry="11.67"
         rx="15.17"
         cy="16.53"
         cx="121.1"
         id="path4081-4"
         style="fill:#deaa87;stroke-width:0.3273" />
      <rect
         inkscape:label="#rect4092-4-39"
         y="44.2"
         x="127.5"
         height="4.408"
         width="9.273"
         id="swordHand_3"
         style="fill:#ffb380;stroke-width:0.3273" />
      <path
         sodipodi:nodetypes="cccccc"
         inkscape:connector-curvature="0"
         id="rect4929-4"
         d="M 136.2,28.5 H 140 L 144.1,29.3 145.3,34.1 H 136.2 Z"
         style="fill:#447821;stroke-width:0.2892" />
      <rect
         y="42.1"
         x="108.1"
         height="4.408"
         width="9.273"
         id="rect4092-4-3-5"
         style="fill:#ffb380;stroke-width:0.3273" />
      <path
         sodipodi:nodetypes="cccccc"
         inkscape:connector-curvature="0"
         id="rect4929-7-2"
         d="M 107.9,28.9 104.1,28.8 99.96,29.6 98.66,34.4 H 107.9 Z"
         style="fill:#447821;stroke-width:0.2892" />
      <ellipse
         ry="1.543"
         rx="2.006"
         cy="12.83"
         cx="115.1"
         id="path4964-1"
         style="fill:#ffffff;stroke-width:0.3273" />
      <ellipse
         ry="0.7817"
         rx="1.016"
         cy="12.89"
         cx="115.3"
         id="path4964-6-4"
         style="fill:#aaccff;stroke-width:0.1658" />
      <ellipse
         ry="1.543"
         rx="2.006"
         cy="12.79"
         cx="126.6"
         id="path4964-9-8"
         style="fill:#ffffff;stroke-width:0.3273" />
      <ellipse
         ry="0.7817"
         rx="1.016"
         cy="12.86"
         cx="126.3"
         id="path4964-6-1-8"
         style="fill:#aaccff;stroke-width:0.1658" />
      <path
         inkscape:connector-curvature="0"
         id="path4999-5"
         d="M 121.1,16.17 122.8,18.7 H 120.1"
         style="fill:#a05a2c;fill-opacity:0;stroke:#8d5228;stroke-width:0.3273px;stroke-linecap:butt;stroke-linejoin:miter;stroke-opacity:0.9883" />
      <path
         sodipodi:nodetypes="cscsc"
         inkscape:connector-curvature="0"
         id="path5009-5"
         d="M 126.3,21.7 C 126.3,21.7 123.9,23.2 121,23.2 118,23.2 115.6,21.7 115.6,21.7 115.6,21.7 117.8,23.2 120.8,23.2 123.7,23.2 126.3,21.7 126.3,21.7 Z"
         style="fill:none;fill-opacity:1;stroke:#000000;stroke-width:0.3278;stroke-opacity:1" />
      <path
         inkscape:connector-curvature="0"
         id="path5020-6"
         d="M 106.6,8.51 106.8,13.38 112.7,10.08 117.4,10.28 121.1,8.66 125.1,10.33 129,9.52 133.7,10.28 133.3,6.88 128,4.24 122.1,3.74 115.5,3.64 C 115.5,3.64 109.9,5.27 109.6,5.42 109.4,5.57 106.6,8.47 106.6,8.47 Z"
         style="fill:#000000;fill-opacity:1;stroke:#000000;stroke-width:0.3273px;stroke-linecap:butt;stroke-linejoin:miter;stroke-opacity:1" />
      <rect
         inkscape:label="#rect160-8"
         y="2.25"
         x="91.06"
         height="1.218"
         width="1.218"
         id="Base_7"
         style="fill:#000229;fill-opacity:1;stroke:none;stroke-width:0.1577;stroke-opacity:1" />
    </g>
    <g
       id="front3"
       inkscape:label="#g464">
      <path
         inkscape:export-ydpi="25.4"
         inkscape:export-xdpi="25.4"
         inkscape:export-filename="E:\MeinProgrammierdingsbums\SFML\ZeldaLike\ZeldaLike\dataRaw\chars\Player\front3.png"
         sodipodi:nodetypes="ccccccccc"
         inkscape:connector-curvature="0"
         id="rect4054-6-2"
         d="M 176.7,29.8 182,28.6 H 215.2 L 220.4,29.5 231.8,61.9 227.6,61 H 170.6 L 167.8,61.8 Z"
         style="fill:#165016;stroke-width:0.3273" />
      <rect
         y="60.9"
         x="182.5"
         height="6.971"
         width="11.63"
         id="rect4058-5-1"
         style="fill:#a05a2c;stroke-width:0.2915" />
      <rect
         y="58.2"
         x="203.6"
         height="6.971"
         width="11.63"
         id="rect4058-4-6-3"
         style="fill:#a05a2c;stroke-width:0.2915" />
      <rect
         ry="2.03"
         y="28.6"
         x="179.8"
         height="32.09"
         width="38.97"
         id="rect4932-0-1"
         style="fill:#338000;stroke-width:0.3157" />
      <rect
         y="25.8"
         x="192.1"
         height="2.87"
         width="11.2"
         id="rect4062-5-3"
         style="fill:#deaa87;stroke-width:0.3273" />
      <ellipse
         ry="11.67"
         rx="15.17"
         cy="16.69"
         cx="197.8"
         id="path4081-4-0"
         style="fill:#deaa87;stroke-width:0.3273" />
      <rect
         inkscape:label="#rect4092-4-39-4"
         y="44"
         x="204.9"
         height="4.408"
         width="9.273"
         id="swordHand_4"
         style="fill:#ffb380;stroke-width:0.3273" />
      <path
         sodipodi:nodetypes="cccccc"
         inkscape:connector-curvature="0"
         id="rect4929-4-3"
         d="M 212.8,28.7 216.7,28.6 220.8,29.5 222,34.3 H 212.8 Z"
         style="fill:#447821;stroke-width:0.2892" />
      <rect
         y="46.4"
         x="184.8"
         height="4.408"
         width="9.273"
         id="rect4092-4-3-5-1"
         style="fill:#ffb380;stroke-width:0.3273" />
      <path
         sodipodi:nodetypes="cccccc"
         inkscape:connector-curvature="0"
         id="rect4929-7-2-4"
         d="M 184.6,29 H 180.8 L 176.7,29.8 175.4,34.6 H 184.6 Z"
         style="fill:#447821;stroke-width:0.2892" />
      <ellipse
         ry="1.543"
         rx="2.006"
         cy="12.99"
         cx="191.8"
         id="path4964-1-2"
         style="fill:#ffffff;stroke-width:0.3273" />
      <ellipse
         ry="0.7817"
         rx="1.016"
         cy="13.05"
         cx="192"
         id="path4964-6-4-5"
         style="fill:#aaccff;stroke-width:0.1658" />
      <ellipse
         ry="1.543"
         rx="2.006"
         cy="12.95"
         cx="203.2"
         id="path4964-9-8-0"
         style="fill:#ffffff;stroke-width:0.3273" />
      <ellipse
         ry="0.7817"
         rx="1.016"
         cy="13.01"
         cx="203"
         id="path4964-6-1-8-0"
         style="fill:#aaccff;stroke-width:0.1658" />
      <path
         inkscape:connector-curvature="0"
         id="path4999-5-7"
         d="M 197.8,16.32 199.5,18.8 H 196.7"
         style="fill:#a05a2c;fill-opacity:0;stroke:#8d5228;stroke-width:0.3273px;stroke-linecap:butt;stroke-linejoin:miter;stroke-opacity:0.9883" />
      <path
         sodipodi:nodetypes="cscsc"
         inkscape:connector-curvature="0"
         id="path5009-5-2"
         d="M 203,21.9 C 203,21.9 200.6,23.3 197.7,23.3 194.7,23.3 192.3,21.9 192.3,21.9 192.3,21.9 194.5,23.3 197.5,23.3 200.4,23.3 203,21.9 203,21.9 Z"
         style="fill:none;fill-opacity:1;stroke:#000000;stroke-width:0.3278;stroke-opacity:1" />
      <path
         inkscape:connector-curvature="0"
         id="path5020-6-9"
         d="M 183.3,8.66 183.5,13.53 189.4,10.23 194.1,10.44 197.8,8.81 201.8,10.49 205.7,9.67 210.4,10.44 209.9,7.04 204.7,4.4 198.8,3.89 H 192.2 C 192.2,3.89 186.6,5.51 186.3,5.67 186.1,5.82 183.3,8.71 183.3,8.71 Z"
         style="fill:#000000;fill-opacity:1;stroke:#000000;stroke-width:0.3273px;stroke-linecap:butt;stroke-linejoin:miter;stroke-opacity:1" />
      <rect
         inkscape:label="#rect160-5"
         y="2.65"
         x="167.8"
         height="1.218"
         width="1.218"
         id="Base_8"
         style="fill:#784421;fill-opacity:1;stroke:none;stroke-width:0.1577;stroke-opacity:1" />
    </g>
  </g>
</svg>
